
	<svg xmlns="http://www.w3.org/2000/svg" xmlns:xlink="http://www.w3.org/1999/xlink" version="1.1" width="128" height="128" viewBox="0 0 100 100">


		<defs>
			<linearGradient id="Gradient_2" gradientUnits="userSpaceOnUse" x1="10" y1="25" x2="90" y2="25" spreadMethod="pad">
<stop offset="0%" stop-color="#FFFFFF" stop-opacity="0.2"/>

<stop offset="100%" stop-color="#FFFFFF" stop-opacity="0.4"/>
</linearGradient><linearGradient id="Gradient_3" gradientUnits="userSpaceOnUse" x1="90" y1="32" x2="10" y2="32" spreadMethod="pad">
<stop offset="0%" stop-color="#FFFFFF" stop-opacity="0.1"/>

<stop offset="100%" stop-color="#FFFFFF" stop-opacity="0.7"/>
</linearGradient><linearGradient id="Gradient_4" gradientUnits="userSpaceOnUse" x1="10" y1="49" x2="61" y2="49" spreadMethod="pad">
<stop offset="0%" stop-color="#FFFFFF" stop-opacity="0.1"/>

<stop offset="100%" stop-color="#FFFFFF" stop-opacity="0.7"/>
</linearGradient><g id="background">
<path fill="url(#background-gradient)" stroke="none" d=" M 84.05 59.05 Q 89.85 55.3 89.85 50 89.85 44.7 84.05 40.95 L 24.2 2.35 Q 18.4 -1.4 14.3 0.85 10.15 3.15 10.15 10.05 L 10.15 89.95 Q 10.15 96.9 14.3 99.15 18.4 101.4 24.2 97.65 L 84.05 59.05 Z"/>
</g><mask id="mask">
<path fill="#FFFFFF" stroke="none" d=" M 84.05 59.05 Q 89.85 55.3 89.85 50 89.85 44.7 84.05 40.95 L 24.2 2.35 Q 18.4 -1.4 14.3 0.85 10.15 3.15 10.15 10.05 L 10.15 89.95 Q 10.15 96.9 14.3 99.15 18.4 101.4 24.2 97.65 L 84.05 59.05 Z"/>
</mask><g id="gloss-top">
<path fill="url(#Gradient_2)" stroke="none" d=" M 88.4 45.2 Q 86.9 42.75 84.05 40.95 L 24.2 2.35 Q 18.4 -1.4 14.3 0.85 10.15 3.15 10.15 10.05 L 10.15 50 89.85 50 Q 89.85 47.5 88.4 45.2 Z"/>
</g><g id="gloss-right">
<path fill="url(#Gradient_3)" stroke="none" d=" M 84.05 59.05 Q 89.85 55.3 89.85 50 89.85 44.7 84.05 40.95 L 24.2 2.35 Q 18.4 -1.4 14.3 0.85 10.15 3.15 10.15 10.05 L 10.15 41.6 75.45 64.6 84.05 59.05 Z"/>
</g><g id="gloss-left">
<path fill="url(#Gradient_4)" stroke="none" d=" M 14.3 0.85 Q 10.15 3.15 10.15 10.05 L 10.15 89.95 Q 10.15 93.1 11.05 95.35 12 97.55 13.65 98.7 L 61.2 26.2 24.2 2.35 Q 18.4 -1.4 14.3 0.85 Z"/>
</g>
			
	<linearGradient id="background-gradient" x1="0" y1="0" y2="1" x2="0" >
		<stop stop-color="#da1558" offset="0%"/>
		<stop stop-color="#000" offset="100%"/>
	</linearGradient>

			
			
			<g transform="scale(0.6634291561403033) translate(-65.63400650024414 -78)" id="picture"><path d="M96.95 183.848c3.96-1.32 9.901-1.32 16.172 0l7.92 1.98c2.641.66 5.281 1.65 8.252 1.98 4.62 1.32 9.24 1.65 13.861 1.65 1.98 0 3.63 0 5.61-.33 4.621-.33 8.582-1.65 12.212-2.64 1.98-.66 3.96-.99 5.94-1.65 8.581-1.98 15.512-2.64 21.453-1.65 1.98.33 3.63-.99 3.63-2.97s-.99-3.631-2.97-3.631c-6.601-.99-14.192-.33-23.763 1.65-1.98.33-3.96.99-6.27 1.65-3.63.99-7.261 1.98-11.221 2.31-5.611.66-11.552 0-17.162-.99-2.64-.33-4.95-.99-7.921-1.65-2.64-.66-5.28-1.65-8.25-2.31-4.291-.99-12.542-1.98-19.473 0-1.65.66-2.64 2.64-2.31 4.29.66 1.65 2.64 2.64 4.29 2.31zm91.75 6.27c-6.601-.99-14.192-.33-23.763 1.65-1.98.33-3.96.99-6.27 1.65-3.63.99-7.261 1.98-11.221 2.31-5.611.661-11.552 0-17.162-.99-2.31-.66-4.62-1.32-7.591-1.98-2.64-.66-5.28-1.65-8.25-2.31-4.291-.99-12.542-1.98-19.473 0-1.65.66-2.64 2.64-2.31 4.29.66 1.651 2.31 2.641 4.29 2.311 3.96-1.32 9.901-1.32 16.172 0l7.92 1.98c2.641.66 5.281 1.65 8.252 1.98 4.62 1.32 9.24 1.65 13.861 1.65 1.98 0 3.63 0 5.61-.33 4.621-.33 8.582-1.65 12.212-2.64 1.98-.66 3.96-.99 5.94-1.65 8.581-1.98 15.512-2.64 21.453-1.65 1.98.33 3.63-.99 3.63-2.97 0-1.32-1.32-2.97-3.3-3.3zm0 13.202c-6.601-.99-14.192-.33-23.763 1.65-1.98.33-3.96.99-6.27 1.65-3.63.99-7.261 1.98-11.221 2.31-5.611.66-11.552 0-17.162-.99-2.31-.66-4.62-1.32-7.591-1.98-2.64-.66-5.28-1.65-8.25-2.31-4.291-.99-12.542-1.98-19.473 0-1.65.66-2.64 2.64-2.31 4.29.66 1.65 2.31 2.64 4.29 2.31 3.96-1.32 9.901-1.32 16.172 0l7.92 1.98c2.641.66 5.281 1.65 8.252 1.98 4.29.99 9.24 1.32 13.531 1.32 1.98 0 3.63 0 5.61-.33 4.621-.33 8.581-1.65 12.212-2.64 1.98-.66 3.96-.99 5.94-1.65 8.581-1.98 15.512-2.64 21.453-1.65 1.98.33 3.63-.99 3.63-2.97s-.99-2.64-2.97-2.97zm0 13.201c-6.601-.99-14.192-.33-23.763 1.65-1.98.33-3.96.99-6.27 1.65-3.63.99-7.261 1.98-11.221 2.31-5.611.66-11.552 0-17.162-.99-2.31-.66-4.62-1.32-7.591-1.98-2.64-.66-5.61-1.65-8.58-2.31-4.291-.99-12.542-1.98-19.473 0-1.65.66-2.64 2.31-2.31 4.29.66 1.65 2.31 2.64 4.29 2.31 3.96-1.32 9.901-1.32 16.172 0l7.92 1.98c2.641.661 5.281 1.651 8.252 1.981 4.29.99 9.24 1.32 13.531 1.32 1.98 0 3.63 0 5.61-.33 4.621-.33 8.581-1.65 12.212-2.64 1.98-.66 3.96-.99 5.94-1.65 8.581-1.98 15.512-2.64 21.453-1.65 1.98.33 3.63-.99 3.63-2.97s-.66-2.64-2.64-2.971z M185 118.938c-1.875-1.25-2.5-3.75-1.563-5.626 1.875-3.124 1.875-7.187 0-10.312s-5.312-5.313-9.062-5.313c-2.188 0-4.063-1.874-4.063-4.062 0-3.75-1.875-7.187-5.312-9.063-3.125-1.874-7.187-1.874-10.313 0-1.875 1.25-4.375.313-5.625-1.562-1.875-3.125-5.312-5-9.062-5s-7.187 1.875-9.063 5c-1.25 1.875-3.75 2.5-5.625 1.563-3.124-1.876-7.187-1.876-10.312 0s-5.313 5.312-5.313 9.062c0 2.188-1.874 4.063-4.062 4.063-3.75 0-7.187 2.187-9.063 5.312s-1.874 7.187 0 10.313c1.25 1.874.313 4.374-1.562 5.624-3.125 1.876-5 5.313-5 9.063s1.875 7.187 5 9.063c1.875 1.25 2.5 3.75 1.563 5.625-1.876 3.125-1.876 7.187 0 10.312s5.312 5.313 9.062 5.313c2.188 0 4.063 1.875 4.063 4.062 0 3.75 1.874 7.187 5.312 9.063 3.125 1.875 7.187 1.875 10.313 0 1.874-1.25 4.374-.313 5.624 1.562 1.875 3.125 5.313 5 9.063 5s7.187-1.875 9.063-5c1.25-1.875 3.75-2.5 5.625-1.563 3.125 1.875 7.187 1.875 10.312 0s5.313-5.312 5.313-9.062c0-2.188 1.875-4.063 4.062-4.063 3.75 0 7.187-1.875 9.063-5.312 1.875-3.125 1.875-7.187 0-10.313-1.25-1.875-.313-4.375 1.562-5.625 3.125-1.875 5-5.312 5-9.062s-1.875-7.187-5-9.063zm-3.438 12.812c-5 2.813-6.562 9.063-3.75 14.063.625 1.25.625 2.812 0 4.062s-2.187 2.188-3.437 2.188c-5.625 0-10.313 4.687-10.313 10.312 0 1.563-.937 2.813-2.187 3.438a4.635 4.635 0 0 1-4.063 0c-5-2.813-11.25-1.25-14.062 3.75-.938 1.562-2.188 2.187-3.75 2.187s-2.813-.625-3.75-2.188c-1.875-3.437-5.313-5-9.063-5-1.874 0-3.437.313-5 1.25-1.25.625-2.812.625-4.062 0s-2.188-1.875-2.188-3.437c0-5.625-4.687-10.313-10.312-10.313-1.563 0-2.813-.937-3.438-2.187a4.635 4.635 0 0 1 0-4.063c2.813-5 1.25-11.25-3.75-14.062-1.562-.938-2.187-2.188-2.187-3.75s.625-2.813 2.188-3.75c5-2.813 6.562-9.063 3.75-14.063-.938-1.25-.938-2.812 0-4.062.624-1.25 1.874-2.188 3.437-2.188 5.625 0 10.313-4.687 10.313-10.312 0-1.563.937-2.813 2.187-3.438a4.635 4.635 0 0 1 4.063 0c5 2.813 11.25 1.25 14.062-3.75 1.563-2.5 5.625-2.5 7.187 0 2.813 5 9.063 6.563 14.063 3.75 1.25-.624 2.813-.624 4.063 0s2.187 2.188 2.187 3.438c0 5.625 4.688 10.313 10.313 10.313 1.562 0 2.812.937 3.437 2.187s.625 2.813 0 4.063c-2.813 5-1.25 11.25 3.75 14.062 1.25.625 2.188 2.188 2.188 3.75.312 1.563-.313 2.813-1.875 3.75z M188.758 127.515c-11.801-13.664-28.882-21.739-46.584-22.36h-4.348c-17.702.621-34.472 8.696-46.584 22.36-1.242 1.553-1.242 3.727 0 4.97 12.423 14.285 30.124 22.36 48.758 22.36s36.335-8.075 48.758-22.36c1.242-1.243 1.242-3.417 0-4.97zM158.634 130c0 10.248-8.386 18.633-18.634 18.633s-18.634-8.385-18.634-18.633c0-9.317 7.143-17.081 16.15-18.323h4.969c9.006.931 16.149 9.006 16.149 18.323zm-38.51-14.907c-3.105 4.037-4.969 9.317-4.969 14.907s1.864 10.87 5.28 15.217c-8.696-3.105-16.46-8.074-22.982-15.217 6.212-6.833 14.286-11.802 22.671-14.907zm39.441 30.124c3.106-4.037 5.28-9.317 5.28-15.217 0-5.59-1.864-10.87-4.97-14.907 8.696 3.105 16.46 8.074 22.982 14.907-6.522 6.832-14.596 12.112-23.292 15.217zM130.683 130c0 5.28 4.038 9.316 9.317 9.316s9.317-4.037 9.317-9.316-4.037-9.317-9.317-9.317-9.317 4.037-9.317 9.317zm15.528 0c0 3.416-2.795 6.21-6.211 6.21s-6.211-2.794-6.211-6.21 2.795-6.211 6.211-6.211 6.211 2.795 6.211 6.21z"/></g>
			
	<linearGradient id="picture-gradient" x1="0" y1="0" y2="1" x2="0" >
		<stop stop-color="#fff" offset="0%"/>
		<stop stop-color="#911119" offset="100%"/>
	</linearGradient>

		</defs>

		

			<use xlink:href="#background" fill="url(#background-gradient)" />

		

			<g mask="url(#mask)">
				<g transform="
				        translate(
                                35 50
)
                            translate(10 0)  scale(0.575) scale(-1 1) 
                            translate(
                                -35 -50
)">
						<use xlink:href="#picture" fill="url(#picture-gradient)"  />
				</g>
			</g>

		

			<use xlink:href="#gloss-left" opacity="1" />


	</svg>
